<svg width="18" height="21" viewBox="0 0 18 21" fill="none" xmlns="http://www.w3.org/2000/svg">
<path d="M16.9 20.5C16.743 20.5 16.588 20.45 16.458 20.356L9 14.928L1.542 20.358C1.314 20.522 1.012 20.548 0.759999 20.418C0.509999 20.291 0.349998 20.033 0.349998 19.751V2.6C0.349998 1.36 1.36 0.35 2.6 0.35H15.398C16.638 0.35 17.648 1.36 17.648 2.6V19.75C17.648 20.032 17.49 20.29 17.238 20.418C17.132 20.473 17.015 20.5 16.898 20.5H16.9ZM9 13.25C9.155 13.25 9.31 13.298 9.44 13.394L16.15 18.277V2.6C16.15 2.188 15.813 1.85 15.4 1.85H2.6C2.187 1.85 1.85 2.188 1.85 2.6V18.277L8.56 13.394C8.69 13.298 8.845 13.25 9 13.25Z" fill="#D9D9D9"/>
</svg>
