<svg width="16" height="4" viewBox="0 0 16 4" fill="none" xmlns="http://www.w3.org/2000/svg">
<path d="M2.16667 3.66665C3.08714 3.66665 3.83333 2.92045 3.83333 1.99998C3.83333 1.0795 3.08714 0.333313 2.16667 0.333313C1.24619 0.333313 0.5 1.0795 0.5 1.99998C0.5 2.92045 1.24619 3.66665 2.16667 3.66665Z" fill="#D9D9D9"/>
<path d="M8.00001 3.66665C8.92048 3.66665 9.66668 2.92045 9.66668 1.99998C9.66668 1.0795 8.92048 0.333313 8.00001 0.333313C7.07954 0.333313 6.33334 1.0795 6.33334 1.99998C6.33334 2.92045 7.07954 3.66665 8.00001 3.66665Z" fill="#D9D9D9"/>
<path d="M13.8333 3.66665C14.7538 3.66665 15.5 2.92045 15.5 1.99998C15.5 1.0795 14.7538 0.333313 13.8333 0.333313C12.9128 0.333313 12.1667 1.0795 12.1667 1.99998C12.1667 2.92045 12.9128 3.66665 13.8333 3.66665Z" fill="#D9D9D9"/>
</svg>
