<svg width="20" height="20" viewBox="0 0 20 20" fill="none" xmlns="http://www.w3.org/2000/svg">
<path d="M9.99999 18.9583C5.05999 18.9583 1.04166 14.94 1.04166 10C1.04166 5.06001 5.05999 1.04167 9.99999 1.04167C14.94 1.04167 18.9583 5.06001 18.9583 10C18.9583 14.94 14.94 18.9583 9.99999 18.9583ZM9.99999 2.29167C5.74999 2.29167 2.29166 5.75001 2.29166 10C2.29166 14.25 5.74999 17.7083 9.99999 17.7083C14.25 17.7083 17.7083 14.25 17.7083 10C17.7083 5.75001 14.25 2.29167 9.99999 2.29167Z" fill="#1D9BF0"/>
<path d="M9.99998 14.2625C8.42332 14.2625 6.97248 13.4708 6.11998 12.1425C5.93332 11.8525 6.01748 11.4675 6.30832 11.28C6.59832 11.0917 6.98498 11.1767 7.17165 11.4683C7.79415 12.4367 8.85165 13.0142 10.0008 13.0142C11.15 13.0142 12.2075 12.4367 12.8308 11.4692C13.0175 11.1775 13.4042 11.0942 13.6942 11.2817C13.9858 11.4683 14.0692 11.855 13.8825 12.145C13.0283 13.4733 11.5775 14.2658 10.0008 14.2658L9.99998 14.2625Z" fill="#1D9BF0"/>
<path d="M12.2817 9.11334C12.9619 9.11334 13.5133 8.56191 13.5133 7.88168C13.5133 7.20145 12.9619 6.65001 12.2817 6.65001C11.6014 6.65001 11.05 7.20145 11.05 7.88168C11.05 8.56191 11.6014 9.11334 12.2817 9.11334Z" fill="#1D9BF0"/>
<path d="M7.7183 9.11334C8.39853 9.11334 8.94997 8.56191 8.94997 7.88168C8.94997 7.20145 8.39853 6.65001 7.7183 6.65001C7.03807 6.65001 6.48663 7.20145 6.48663 7.88168C6.48663 8.56191 7.03807 9.11334 7.7183 9.11334Z" fill="#1D9BF0"/>
</svg>
