<svg width="20" height="20" viewBox="0 0 20 20" fill="none" xmlns="http://www.w3.org/2000/svg">
<path d="M15.8333 8.74999V7.33333H12.1666V12.6667H13.5833V11H15.25V9.58333H13.5833V8.74999H15.8333ZM9.74998 7.33333H11.1666V12.6667H9.74998V7.33333ZM6.74998 8.66666C7.08331 8.66666 7.49998 8.83333 7.74998 9.08333L8.74998 8.24999C8.24998 7.66666 7.49998 7.33333 6.74998 7.33333C5.24998 7.33333 4.08331 8.49999 4.08331 10C4.08331 11.5 5.24998 12.6667 6.74998 12.6667C7.58331 12.6667 8.24998 12.3333 8.74998 11.75V9.66666H6.41665V10.6667H7.41665V11.1667C7.24998 11.25 6.99998 11.3333 6.74998 11.3333C5.99998 11.3333 5.41665 10.75 5.41665 10C5.41665 9.33333 5.99998 8.66666 6.74998 8.66666Z" fill="#1D9BF0"/>
<path d="M17.0833 1.68333H2.91666C1.88332 1.68333 1.04166 2.5225 1.04166 3.55583V16.4783C1.04166 17.51 1.88332 18.35 2.91666 18.35H17.0833C18.1167 18.35 18.9583 17.51 18.9583 16.4783V3.55583C18.9583 2.5225 18.1167 1.68333 17.0833 1.68333ZM17.7083 16.4783C17.7083 16.82 17.4283 17.1 17.0833 17.1H2.91666C2.57166 17.1 2.29166 16.82 2.29166 16.4783V3.55583C2.29166 3.2125 2.57166 2.93333 2.91666 2.93333H17.0833C17.4283 2.93333 17.7083 3.2125 17.7083 3.55583V16.4783Z" fill="#1D9BF0"/>
</svg>
