<svg width="24" height="22" viewBox="0 0 24 22" fill="none" xmlns="http://www.w3.org/2000/svg">
<path d="M22.58 6.34999L12.475 0.896993C12.178 0.736993 11.821 0.736993 11.525 0.896993L1.425 6.34999C0.938999 6.61399 0.757999 7.21999 1.02 7.70599C1.2 8.04099 1.545 8.23099 1.9 8.23099C2.06 8.23099 2.224 8.19299 2.375 8.11099L3.109 7.71499L4.699 18.965C4.915 20.179 6.009 21.027 7.359 21.027H16.641C17.991 21.027 19.085 20.179 19.303 18.939L20.891 7.71399L21.628 8.11199C22.113 8.37499 22.72 8.19399 22.982 7.70799C23.245 7.22199 23.062 6.61499 22.578 6.35299L22.58 6.34999ZM12 14.435C10.205 14.435 8.75 12.98 8.75 11.185C8.75 9.38999 10.205 7.93499 12 7.93499C13.795 7.93499 15.25 9.38999 15.25 11.185C15.25 12.98 13.795 14.435 12 14.435Z" fill="#D9D9D9"/>
</svg>
