<svg version="1.2" xmlns="http://www.w3.org/2000/svg" viewBox="0 0 20 20" width="20" height="20">
	<title>media-svg</title>
	<style>
		.s0 { fill: #1d9bf0 } 
	</style>
	<g id="Layer">
		<path id="Layer" fill-rule="evenodd" class="s0" d="m18.3 3.5v13c0 1-0.8 1.8-1.8 1.8h-13c-1 0-1.8-0.8-1.8-1.8v-13c0-1 0.8-1.8 1.8-1.8h13c1 0 1.8 0.8 1.8 1.8zm-15.4 0v11.2l4.1-4.2c0.1-0.1 0.3-0.2 0.4-0.1q0.3 0 0.5 0.1l1.5 1.5 3.6-3.6q0.2-0.2 0.4-0.2 0.3 0 0.5 0.2l3.2 3.2v-8.1c0-0.3-0.3-0.6-0.6-0.6h-13c-0.3 0-0.6 0.3-0.6 0.6zm0.6 13.6h9.2l-5.3-5.2-4.5 4.6c0 0.3 0.3 0.6 0.6 0.6zm13.6-0.6v-3.1l-3.7-3.7-3.1 3.2 4.1 4.2h2.1c0.3 0 0.6-0.3 0.6-0.6z"/>
		<path id="Layer" class="s0" d="m7.4 8.2c0.7 0 1.3-0.6 1.3-1.3 0-0.7-0.6-1.3-1.3-1.3-0.7 0-1.3 0.6-1.3 1.3 0 0.7 0.6 1.3 1.3 1.3z"/>
	</g>
</svg>