<svg width="20" height="20" viewBox="0 0 20 20" fill="none" xmlns="http://www.w3.org/2000/svg">
<g clip-path="url(#clip0_202_1371)">
<path d="M-31.5833 15C-31.6667 14.9167 -31.6667 14.9167 -31.6667 14.8333C-31.5833 14.8333 -31.5833 14.9167 -31.5833 15ZM15 1.83334H13.9167V1.58334C13.9167 1.25001 13.6667 0.916672 13.25 0.916672C12.9167 0.916672 12.5833 1.16667 12.5833 1.58334V1.83334H6.41668V1.58334C6.41668 1.25001 6.16668 0.916672 5.75001 0.916672C5.41668 0.916672 5.08334 1.16667 5.08334 1.58334V1.83334H4.00001C2.83334 1.83334 1.91668 2.75001 1.91668 3.91667V14.8333C1.91668 16 2.83334 16.9167 4.00001 16.9167H6.41668C6.75001 16.9167 7.08334 16.6667 7.08334 16.25C7.08334 15.9167 6.83335 15.5833 6.41668 15.5833H4.00001C3.50001 15.5833 3.16668 15.1667 3.16668 14.75V6.58334C3.16668 6.33334 3.50001 6 4.00001 6H15C15.5 6 15.8333 6.33334 15.8333 6.58334V8.08334C15.8333 8.41667 16.0833 8.75 16.5 8.75C16.8333 8.75 17.1667 8.5 17.1667 8.08334V3.91667C17.0833 2.75001 16.1667 1.83334 15 1.83334ZM15.8333 4.91667C15.5833 4.83334 15.25 4.75001 15 4.75001H4.00001C3.66668 4.75001 3.41668 4.83334 3.16668 4.91667V3.91667C3.16668 3.41667 3.58334 3.08334 4.00001 3.08334H5.08334V3.50001C5.08334 3.83334 5.33335 4.16667 5.75001 4.16667C6.08335 4.16667 6.41668 3.91667 6.41668 3.50001V3.08334H12.6667V3.50001C12.6667 3.83334 12.9167 4.16667 13.3333 4.16667C13.6667 4.16667 14 3.91667 14 3.50001V3.08334H15C15.5 3.08334 15.8333 3.50001 15.8333 3.91667V4.91667Z" fill="#1D9BF0"/>
<path d="M12.9167 8.66667C10.0833 8.66667 7.75 11 7.75 13.8333C7.75 16.6667 10.0833 19 12.9167 19C15.75 19 18.0833 16.6667 18.0833 13.8333C18.0833 11 15.75 8.66667 12.9167 8.66667ZM12.9167 17.8333C10.75 17.8333 9 16.0833 9 13.9167C9 11.75 10.75 10 12.9167 10C15.0833 10 16.8333 11.75 16.8333 13.9167C16.8333 16 15.0833 17.8333 12.9167 17.8333Z" fill="#1D9BF0"/>
<path d="M15.75 15.5833C15.6667 15.75 15.4167 15.9167 15.25 15.9167C15.1667 15.9167 15 15.9167 14.9167 15.8333L12.3334 14.1667V11.6667C12.3334 11.3333 12.5834 11 13 11C13.3334 11 13.6667 11.25 13.6667 11.6667V13.5L15.6667 14.75C15.8334 14.9167 15.9167 15.25 15.75 15.5833Z" fill="#1D9BF0"/>
</g>
<defs>
<clipPath id="clip0_202_1371">
<rect width="20" height="20" fill="white"/>
</clipPath>
</defs>
</svg>
