<svg width="20" height="20" viewBox="0 0 20 20" fill="none" xmlns="http://www.w3.org/2000/svg">
<g id="Icons/Settings">
<g id="Group">
<path id="Vector" d="M10 6.84167C8.25834 6.84167 6.84167 8.25834 6.84167 10C6.84167 11.7417 8.25834 13.1583 10 13.1583C11.7417 13.1583 13.1583 11.7417 13.1583 10C13.1583 8.25834 11.7417 6.84167 10 6.84167ZM10 11.9083C8.94834 11.9083 8.09167 11.0533 8.09167 10C8.09167 8.94668 8.95001 8.09167 10 8.09167C11.05 8.09167 11.9083 8.94668 11.9083 10C11.9083 11.0533 11.0517 11.9083 10 11.9083Z" fill="#EFF3F4"/>
<path id="Vector_2" d="M10.3 18.6458H9.69837C8.71254 18.6458 7.90337 17.9058 7.81337 16.9258L7.80171 16.8033C7.78087 16.5642 7.62921 16.3592 7.40837 16.2667C7.17004 16.1667 6.92337 16.2125 6.74337 16.3625L6.64671 16.4433C5.92337 17.0475 4.76921 16.9958 4.09671 16.3267L3.67171 15.9017C2.97504 15.2017 2.92504 14.1067 3.55504 13.3517L3.63671 13.2533C3.79171 13.0683 3.82837 12.8175 3.73837 12.5975C3.64671 12.3708 3.44004 12.2192 3.20004 12.1975L3.07504 12.1858C2.09171 12.0967 1.35254 11.2858 1.35254 10.3008V9.69917C1.35254 8.71334 2.09254 7.90417 3.07254 7.81417L3.20254 7.80251C3.44004 7.78167 3.64421 7.63001 3.73754 7.40834C3.82921 7.18334 3.79171 6.93084 3.63754 6.74584L3.55921 6.64917C2.92837 5.89251 2.97754 4.79667 3.67337 4.09917L4.10004 3.67251C4.77004 3.00251 5.92337 2.95167 6.65004 3.55584L6.74671 3.63751C6.92837 3.79084 7.18671 3.82917 7.40504 3.73917C7.63004 3.64584 7.78171 3.44084 7.80254 3.20334L7.81421 3.07584C7.90337 2.09251 8.71421 1.35417 9.69921 1.35417H10.3009C11.2867 1.35417 12.0959 2.09417 12.1859 3.07417L12.1975 3.20417C12.2184 3.44167 12.3692 3.64584 12.5909 3.73751C12.8217 3.83501 13.0742 3.78917 13.2525 3.64001L13.3525 3.55501C14.075 2.9525 15.2309 3.00334 15.9025 3.67167L16.3275 4.09834C17.0242 4.79667 17.0742 5.89251 16.4442 6.64834L16.3609 6.74667C16.2042 6.93001 16.1659 7.18167 16.2584 7.40334C16.3517 7.62834 16.5584 7.77834 16.7967 7.80167L16.9234 7.81334C17.9067 7.90251 18.6459 8.71334 18.6459 9.69834V10.3008C18.6459 11.2867 17.9059 12.0958 16.9259 12.1858L16.7967 12.1975C16.56 12.2175 16.355 12.3683 16.2634 12.5892C16.1692 12.8158 16.2075 13.0675 16.3609 13.2517L16.4442 13.3517C17.0742 14.1058 17.0242 15.2017 16.3275 15.9017L15.9025 16.3267C15.23 16.9967 14.0775 17.0467 13.3525 16.4433L13.2567 16.3633C13.0759 16.2108 12.815 16.1717 12.5984 16.2617C12.3709 16.3567 12.2192 16.5617 12.1984 16.8L12.1867 16.925C12.0975 17.9025 11.2867 18.6417 10.3017 18.6417L10.3 18.6458ZM7.15587 14.9625C7.40587 14.9625 7.65004 15.0125 7.88087 15.1083C8.53921 15.3817 8.98421 15.9867 9.04754 16.6883L9.05921 16.8108C9.09004 17.1442 9.36504 17.3942 9.70087 17.3942H10.3025C10.6359 17.3942 10.9109 17.1442 10.9425 16.8108L10.9542 16.6875C11.0175 15.9858 11.4625 15.3817 12.1142 15.1108C12.775 14.8358 13.5275 14.9592 14.0584 15.4025L14.1525 15.4808C14.3009 15.6042 14.4575 15.6308 14.5634 15.6308C14.735 15.6308 14.8967 15.5642 15.0184 15.4417L15.4434 15.0167C15.68 14.78 15.6975 14.4083 15.4834 14.1517L15.4 14.0517C14.9484 13.51 14.8359 12.7683 15.1067 12.1158C15.3784 11.4575 15.9834 11.0158 16.685 10.9517L16.8142 10.94C17.145 10.9092 17.3975 10.6342 17.3975 10.2983V9.69667C17.3975 9.36334 17.145 9.08834 16.8125 9.05667L16.6859 9.04501C15.9809 8.98001 15.3775 8.53667 15.1067 7.88417C14.835 7.22751 14.9484 6.48584 15.4009 5.945L15.4842 5.84667C15.6984 5.58834 15.6809 5.21667 15.4442 4.98001L15.0192 4.55501C14.8975 4.43251 14.7359 4.36584 14.5642 4.36584C14.4584 4.36584 14.3017 4.39251 14.1542 4.51584L14.0542 4.59917C13.5259 5.03917 12.7625 5.15751 12.1192 4.89417C11.4625 4.62167 11.0192 4.01751 10.955 3.31417L10.9434 3.18501C10.9142 2.85417 10.6392 2.60167 10.3042 2.60167H9.70171C9.36837 2.60167 9.09337 2.85417 9.06171 3.18667L9.05004 3.31334C8.98671 4.01584 8.54337 4.62001 7.89171 4.89084C7.23587 5.16251 6.48087 5.04334 5.95004 4.59917L5.85171 4.51917C5.70171 4.39417 5.54504 4.36917 5.43921 4.36917C5.26754 4.36917 5.10587 4.43584 4.98421 4.55751L4.55754 4.98251C4.32254 5.21917 4.30504 5.59084 4.51921 5.84751L4.60254 5.94584C5.05254 6.49001 5.16671 7.23251 4.89587 7.88334C4.62337 8.54001 4.01921 8.98334 3.31671 9.04751L3.18671 9.05917C2.85587 9.09001 2.60337 9.36501 2.60337 9.70084V10.3025C2.60337 10.6358 2.85587 10.9108 3.18837 10.9425L3.31337 10.9542C4.02004 11.0192 4.62421 11.4642 4.89421 12.1175C5.16504 12.7725 5.05254 13.5133 4.60004 14.055L4.52004 14.1508C4.30337 14.4092 4.32171 14.7808 4.55837 15.0175L4.98337 15.4425C5.10504 15.565 5.26671 15.6317 5.43837 15.6317C5.54421 15.6317 5.70087 15.6067 5.84837 15.4817L5.94504 15.4017C6.28337 15.1217 6.71421 14.965 7.15587 14.965V14.9625Z" fill="#EFF3F4"/>
</g>
</g>
</svg>
