<svg width="20" height="21" viewBox="0 0 20 21" fill="none" xmlns="http://www.w3.org/2000/svg">
<path d="M14.6084 6.72501L10.4417 2.55834C10.1975 2.31417 9.8017 2.31417 9.55836 2.55834L5.3917 6.72501C5.1467 6.96917 5.1467 7.36501 5.3917 7.60834C5.6367 7.85167 6.03086 7.85334 6.27503 7.60834L9.37503 4.50834V13C9.37503 13.345 9.65503 13.625 10 13.625C10.345 13.625 10.625 13.345 10.625 13V4.50834L13.725 7.60834C13.8467 7.73084 14.0067 7.79167 14.1667 7.79167C14.3267 7.79167 14.4867 7.73167 14.6084 7.60834C14.8525 7.36417 14.8525 6.96917 14.6084 6.72501Z" fill="#6E767D"/>
<path d="M16.4234 18.7867H3.57669C2.52335 18.7867 1.66669 17.93 1.66669 16.8767V12.1667C1.66669 11.8217 1.94669 11.5417 2.29169 11.5417C2.63669 11.5417 2.91669 11.8217 2.91669 12.1667V16.8767C2.91669 17.2408 3.21252 17.5367 3.57669 17.5367H16.4234C16.7875 17.5367 17.0834 17.2408 17.0834 16.8767V12.1667C17.0834 11.8217 17.3634 11.5417 17.7084 11.5417C18.0534 11.5417 18.3334 11.8217 18.3334 12.1667V16.8767C18.3334 17.93 17.4767 18.7867 16.4234 18.7867Z" fill="#6E767D"/>
</svg>
